<svg xmlns="http://www.w3.org/2000/svg" width="28" height="28" viewBox="0 0 28 28" overflow="visible" enable-background="new 0 0 28 28"><style>.st2{fill:none;stroke:#a02076;stroke-width:1.5;stroke-linecap:round;stroke-linejoin:round}</style><g id="Icons_Security_ic-security-locked_1_" opacity=".6"><rect id="Rectángulo_354_1_" width="28" height="28" fill="none"/><g id="ic-security-locked_1_" transform="translate(2.333 2.333)"><g id="Grupo_30_1_" transform="translate(0 -0.333)"><path id="Rectángulo_99_1_" class="st2" d="M2.2,6.7h20c1.1,0,2,0.9,2,2v13c0,1.1-0.9,2-2,2h-20c-1.1,0-2-0.9-2-2v-13 C0.2,7.6,1.1,6.7,2.2,6.7z"/><circle id="Elipse_90_1_" class="st2" cx="12.1" cy="13.4" r="2.9"/><line id="Línea_429_1_" class="st2" x1="12.2" y1="16.7" x2="12.2" y2="19.7"/><path id="Trazado_322_1_" class="st2" d="M6.2,6.7V2.2C6.2,1,7.2,0,8.5,0h7c1.3,0,2.3,1,2.3,2.2v4.4"/></g></g></g></svg>