<svg xmlns="http://www.w3.org/2000/svg" width="175.8" height="123.8" viewBox="0 0 175.8 123.8" overflow="visible" enable-background="new 0 0 175.8 123.8"><style>.st0{fill:#00a4e4}.st1{fill:#a21977}</style><g id="Grupo_2_1_" transform="translate(0 54.601)"><g id="Grupo_1_1_"><path id="Trazado_1_1_" class="st0" d="M30.2,60.1c0,0.7,0.7,1.3,1.4,1.3c0,0,0,0,0,0c0.7,0.1,1.4-0.5,1.5-1.2c0,0,0-0.1,0-0.1 v-22c0.1-0.4,0.4-0.7,0.8-0.8h5.8c0.4,0,0.8,0.3,0.9,0.8V59c0,6.4-2.9,10.2-9,10.2c-6,0-8.8-3.8-8.8-10.2v-0.6 c0.1-0.6,0.6-1.2,1.2-1.2h5c0.7,0.1,1.2,0.6,1.2,1.2L30.2,60.1L30.2,60.1z M44.1,58.2V38.1c0.1-0.4,0.4-0.7,0.8-0.8h5.8 c0.4,0,0.8,0.3,0.9,0.8v20.1c0,1.9,0.9,3.2,2.5,3.2s2.5-1.4,2.5-3.2V38.1c0.1-0.4,0.4-0.8,0.9-0.8h5.8c0.4,0.1,0.7,0.4,0.8,0.8 v20.1c0,6.1-3,11-10,11S44.1,64.3,44.1,58.2L44.1,58.2z M81.2,69c-0.2,0-0.5-0.2-0.6-0.3c-0.2-0.1-0.3-0.3-0.4-0.5l-5.3-11.9v11.9 c-0.1,0.4-0.4,0.7-0.8,0.8h-5.9c-0.4-0.1-0.7-0.4-0.8-0.8V38.1c0.1-0.4,0.4-0.7,0.8-0.8H74c0.4,0.1,0.8,0.4,1,0.8L80,49.8V38.1 c0.1-0.4,0.4-0.7,0.8-0.8h5.9c0.2,0,0.4,0.1,0.5,0.3c0.1,0.1,0.2,0.3,0.3,0.5v30.1c0,0.2-0.1,0.4-0.3,0.5 c-0.1,0.1-0.3,0.2-0.5,0.3L81.2,69z M108.7,37.4c0.4,0.1,0.8,0.4,0.8,0.9v5.9c-0.1,0.4-0.4,0.7-0.8,0.8h-5.1v23.2 c-0.1,0.4-0.4,0.8-0.9,0.8h-5.8c-0.4-0.1-0.7-0.4-0.8-0.8V44.9H91c-0.4-0.1-0.7-0.4-0.8-0.8v-5.9c0-0.4,0.3-0.8,0.8-0.9 L108.7,37.4z M131.1,47.9v10.4c0,6.1-3,11-10,11s-10-4.9-10-11V47.9c0-6.1,3-11,10-11S131.1,41.8,131.1,47.9z M123.6,58.2V47.8 c0-1.8-0.9-3.2-2.5-3.2s-2.5,1.4-2.5,3.2v10.5c0,1.9,0.9,3.2,2.5,3.2S123.6,60.1,123.6,58.2z M133.3,58.9c0.1-0.4,0.4-0.8,0.9-0.8 h5.8c0.4,0.1,0.7,0.4,0.8,0.8c-0.1,1.3,0.8,2.4,2.1,2.5c0.1,0,0.3,0,0.4,0c1.1,0,2.1-0.9,2.1-2c0,0,0-0.1,0-0.1 c0-1.7-1.8-2.2-3.8-2.9c-3.6-1.1-8-2.8-8-10.1c0-2,0.5-9.6,9.5-9.6c8.9,0,9.5,7.6,9.5,9.5v0.5c-0.1,0.4-0.4,0.8-0.9,0.8h-5.8 c-0.4-0.1-0.7-0.4-0.8-0.8v-0.6c0-0.9-0.8-1.6-2-1.6c-0.9-0.1-1.8,0.6-1.9,1.5c0,0.1,0,0.3,0,0.4c0,1.3,1.7,2,3.5,2.6 c3.5,1,8.3,2.7,8.3,10.1c0,0.4,0,10-9.3,10c-9.8,0-10.5-7.5-10.5-9.8L133.3,58.9z"/><path id="Trazado_2_1_" class="st0" d="M7.3,32.1c-0.4-0.1-0.7-0.4-0.8-0.8L0,1.3c0.1-0.4,0.4-0.7,0.8-0.8h6.1 c0.4,0,0.8,0.4,0.9,0.8l3.5,19.2l3.5-19.2c0.1-0.4,0.5-0.7,0.9-0.8h6.1c0.4,0.1,0.7,0.4,0.8,0.8l-6.6,30.1 c-0.1,0.4-0.4,0.7-0.8,0.8L7.3,32.1z M43.4,11v10.4c0,6.1-3,11-10,11s-10-4.9-10-11V11c0-6.1,3-11,10-11S43.4,4.9,43.4,11L43.4,11 z M35.9,21.4V10.9c0-1.8-0.9-3.2-2.5-3.2s-2.5,1.4-2.5,3.2v10.5c0,1.9,0.9,3.2,2.5,3.2S35.9,23.2,35.9,21.4L35.9,21.4z M47.1,32.1 c-0.4-0.1-0.7-0.4-0.8-0.8V1.3c0.1-0.4,0.4-0.7,0.8-0.8H53c0.4,0,0.8,0.3,0.9,0.8v23.2h8.2c0.4,0.1,0.8,0.4,0.8,0.9v5.9 c-0.1,0.4-0.4,0.7-0.8,0.8L47.1,32.1z M68.1,32.1c-0.4-0.1-0.7-0.4-0.8-0.8L60.8,1.3c0.1-0.4,0.4-0.7,0.8-0.8h6.1 c0.4,0,0.8,0.4,0.9,0.8l3.5,19.2l3.5-19.2c0.1-0.4,0.5-0.7,0.9-0.8h6.1c0.4,0.1,0.7,0.4,0.8,0.8l-6.6,30.1 c-0.1,0.4-0.4,0.7-0.8,0.8L68.1,32.1z M97.2,1.3l6.6,30.1c-0.1,0.4-0.4,0.7-0.8,0.8h-6.1c-0.4,0-0.8-0.4-0.9-0.8l-0.7-4h-5.6 l-0.7,4c-0.1,0.4-0.5,0.7-0.9,0.8H82c-0.4-0.1-0.7-0.4-0.8-0.8l6.6-30.1c0.1-0.4,0.4-0.7,0.8-0.8h7.9C96.8,0.6,97.1,0.9,97.2,1.3 L97.2,1.3z M92.6,12.7h-0.3l-1.2,6.7h2.7L92.6,12.7z M116.6,25.7c-0.3,0-0.7-0.4-0.8-0.8l-2.4-7.1v13.8c-0.1,0.4-0.4,0.8-0.9,0.8 h-5.8c-0.4-0.1-0.7-0.4-0.8-0.8V1.6c0.1-0.4,0.4-0.7,0.8-0.8h7.1c0.4,0.1,0.8,0.4,0.9,0.8l3.6,11.2L122,1.6 c0.1-0.4,0.5-0.7,0.9-0.8h7.1c0.4,0.1,0.7,0.4,0.8,0.8v30.1c-0.1,0.4-0.4,0.7-0.8,0.8h-5.8c-0.4,0-0.8-0.3-0.9-0.8V17.9l-2.5,7.1 c-0.1,0.4-0.5,0.8-0.8,0.8L116.6,25.7z M153.9,11v10.4c0,6.1-3,11-10,11s-10-4.9-10-11V11c0-6.1,3-11,10-11S153.9,4.9,153.9,11z M146.4,21.4V10.9c0-1.8-0.9-3.2-2.5-3.2s-2.5,1.4-2.5,3.2v10.5c0,1.9,0.9,3.2,2.5,3.2S146.4,23.2,146.4,21.4z M156,22 c0.1-0.4,0.4-0.8,0.9-0.8h5.8c0.4,0.1,0.7,0.4,0.8,0.8c-0.1,1.3,0.8,2.4,2.1,2.5c0.1,0,0.3,0,0.4,0c1.1,0,2.1-0.9,2.1-2 c0,0,0-0.1,0-0.1c0-1.7-1.8-2.2-3.8-2.9c-3.6-1.1-8-2.8-8-10.1c0-2,0.5-9.6,9.5-9.6c8.9,0,9.5,7.6,9.5,9.5V10 c-0.1,0.4-0.4,0.8-0.9,0.8h-5.8c-0.4-0.1-0.7-0.4-0.8-0.8V9.4c0-0.9-0.8-1.6-2-1.6c-0.9-0.1-1.8,0.6-1.9,1.5c0,0.1,0,0.3,0,0.4 c0,1.3,1.7,2,3.5,2.6c3.5,1,8.3,2.7,8.3,10.1c0,0.4,0,10-9.3,10c-9.8,0-10.5-7.5-10.5-9.8L156,22z"/></g></g><g id="Grupo_9_1_" transform="translate(40.115)"><g id="Grupo_4_1_" transform="translate(62.552 8.148)"><path id="Trazado_3_1_" class="st1" d="M23.2,19.9H7.8V8.6c0-2.4,1.9-4.4,4.3-4.4c0,0,0,0,0,0c2.3,0,4.2,1.9,4.2,4.3v0.1 c0,0.4,0.2,0.8,0.5,1c0.9,0.7,1,2,0.3,2.9c-0.1,0.1-0.2,0.2-0.3,0.3c-0.3,0.3-0.5,0.6-0.5,1v0.8h4.2V8.5C20.5,3.8,16.7,0,12,0 C7.3,0,3.5,3.8,3.5,8.5c0,0,0,0.1,0,0.1v11.3H0.9c-0.5,0-0.9,0.4-0.9,0.9c0,0,0,0,0,0v20.3C0,41.6,0.4,42,0.9,42c0,0,0,0,0,0h22.3 c0.5,0,0.9-0.4,0.9-0.9c0,0,0,0,0,0V20.8C24.1,20.3,23.7,19.9,23.2,19.9z M14.3,36.9c-0.3,1.2-1.5,2-2.7,1.8 c-0.9-0.2-1.6-0.9-1.8-1.8c-0.2-0.6-0.1-1.3,0.1-1.9l1.1-3.2c0.2-0.7,0.2-1.4,0-2.1l-1.1-3.2c-0.3-0.7-0.2-1.5,0-2.2 c0.5-1.2,1.8-1.8,2.9-1.3c0.6,0.2,1.1,0.7,1.3,1.3c0.3,0.7,0.3,1.5,0,2.2l-1.1,3.2c-0.2,0.7-0.2,1.4,0,2.1l1.1,3.2 C14.4,35.6,14.5,36.3,14.3,36.9z"/><g id="Grupo_3_1_" transform="translate(21.5 7.179)"><path id="Trazado_4_1_" class="st1" d="M0.1,7.4c0,0.1,0.1,0.1,0.1,0.2c0.2,0.2,0.5,0.1,0.7-0.1l5-5.9c0.3-0.4,0.3-1-0.1-1.4 c-0.4-0.3-1-0.3-1.4,0.1c0,0-0.1,0.1-0.1,0.1L0.1,6.9C0,7,0,7.2,0.1,7.4L0.1,7.4z"/><path id="Trazado_5_1_" class="st1" d="M9.4,6.6c0.5-0.2,0.7-0.8,0.5-1.3C9.7,4.8,9.1,4.5,8.7,4.8c0,0-0.1,0-0.1,0.1l-6.7,4 C1.6,9,1.5,9.3,1.7,9.5C1.8,9.7,2,9.8,2.2,9.7L9.4,6.6z"/><path id="Trazado_6_1_" class="st1" d="M10.4,10.5l-7.7,0.6c-0.3,0-0.5,0.2-0.5,0.5c0,0.1,0,0.2,0.1,0.2l0,0 c0.1,0.1,0.2,0.2,0.4,0.3l7.7,0.3c0.5,0,1-0.4,1-0.9c0-0.5-0.4-1-0.9-1C10.5,10.5,10.5,10.5,10.4,10.5L10.4,10.5z"/></g></g><g id="Grupo_6_1_" transform="translate(0 11.305)"><path id="Trazado_7_1_" class="st1" d="M29.9,18.7v9.9c0,5.5-4.4,10.1-10,10.1c-5.5,0-10.1-4.4-10.1-10v-10h15V8.5 c0-2.7-2.1-4.9-4.8-5c-2.7-0.1-5,2.1-5.1,4.8c0,0,0,0.1,0,0.1v0.9c0,0.2-0.2,0.4-0.4,0.4h-0.6c-0.4,0-0.8,0.3-0.8,0.7 c0,0.4,0.3,0.8,0.7,0.9c0,0,0,0,0.1,0h0.6c0.2,0,0.4,0.2,0.4,0.5v1.7h-3.5V8.5c0-4.6,3.7-8.4,8.3-8.5c4.6,0,8.4,3.7,8.5,8.3v10.3 H29.9z M22.6,24.8c0-1.5-1.2-2.7-2.7-2.7c-1.5,0-2.7,1.2-2.7,2.7c0,1,0.5,1.9,1.4,2.4l-0.8,4.4c-0.1,0.4,0.2,0.7,0.6,0.8 c0,0,0.1,0,0.1,0h2.9c0.4,0,0.7-0.3,0.7-0.7c0,0,0-0.1,0-0.1l-0.8-4.4C22,26.7,22.6,25.8,22.6,24.8L22.6,24.8z"/><g id="Grupo_5_1_" transform="translate(0 6.909)"><path id="Trazado_8_1_" class="st1" d="M10.5,6.3L10.5,6.3c0-0.2,0-0.4-0.1-0.5L5,0.3c-0.4-0.4-1-0.4-1.4,0s-0.4,1,0,1.4 c0,0,0.1,0.1,0.1,0.1l6,4.9c0.2,0.2,0.5,0.1,0.7,0C10.4,6.5,10.5,6.4,10.5,6.3z M8.5,10.5l-7.7,0.8c-0.5,0.1-0.9,0.5-0.9,1.1 c0.1,0.5,0.5,0.9,1.1,0.9c0,0,0.1,0,0.1,0l7.5-1.8c0.2,0,0.3-0.2,0.4-0.3l0,0c0-0.1,0-0.1,0-0.2C9,10.7,8.8,10.5,8.5,10.5 L8.5,10.5z M9.1,8.1L1.7,5.4C1.2,5.2,0.6,5.5,0.4,6C0.2,6.5,0.5,7,1,7.2c0,0,0.1,0,0.1,0L8.8,9c0.3,0,0.5-0.1,0.6-0.4 C9.4,8.4,9.3,8.2,9.1,8.1L9.1,8.1z"/></g></g><g id="Grupo_8_1_" transform="translate(34.798)"><path id="Trazado_9_1_" class="st1" d="M19.2,18.5H7.5v-11c0-1.8,1.4-3.2,3.2-3.2c1.7,0,3.1,1.4,3.1,3.1v1.4 c0,0.2,0.1,0.3,0.3,0.4c0.7,0.2,1.2,0.9,1,1.6c-0.1,0.5-0.5,0.9-1,1c-0.2,0-0.3,0.2-0.3,0.4v1.6h4.3V7.4c0-4.1-3.3-7.5-7.5-7.4 c-0.1,0-0.1,0-0.2,0C6.4,0.2,3.2,3.5,3.2,7.6v10.9H0.8c-0.4,0.1-0.7,0.4-0.8,0.8v30.1c0.1,0.4,0.4,0.8,0.9,0.8h18.4 c0.4-0.1,0.7-0.4,0.8-0.8V19.3C20,18.8,19.6,18.5,19.2,18.5z M17.7,37.5c0,0.4-0.3,0.7-0.7,0.7l0,0h-2.5c-0.4,0-0.7-0.3-0.7-0.7 l0,0V35c0-0.4,0.3-0.7,0.7-0.7l0,0H17c0.4,0,0.7,0.3,0.7,0.7l0,0V37.5z M17.7,32.1c0,0.4-0.3,0.7-0.7,0.7l0,0h-2.5 c-0.4,0-0.7-0.3-0.7-0.7l0,0v-2.5c0-0.4,0.3-0.7,0.7-0.7l0,0H17c0.4,0,0.7,0.3,0.7,0.7l0,0V32.1z M17.7,26.8 c0,0.4-0.3,0.7-0.7,0.7l0,0h-2.5c-0.4,0-0.7-0.3-0.7-0.7l0,0v-2.5c0-0.4,0.3-0.7,0.7-0.7l0,0H17c0.4,0,0.7,0.3,0.7,0.7l0,0V26.8z"/><g id="Grupo_7_1_" transform="translate(19.058 6.703)"><path id="Trazado_10_1_" class="st1" d="M6.6,1.7C7,1.3,7,0.7,6.7,0.3c-0.4-0.4-1-0.4-1.4-0.1c0,0-0.1,0.1-0.1,0.1L0.1,6.1 C0,6.3,0,6.4,0,6.6l0,0C0.1,6.9,0.4,7,0.7,6.9c0.1,0,0.1-0.1,0.2-0.1L6.6,1.7z"/><path id="Trazado_11_1_" class="st1" d="M10.1,5.8C9.9,5.3,9.3,5.1,8.8,5.2c0,0,0,0-0.1,0l-7.2,3C1.3,8.4,1.2,8.7,1.3,8.9 c0.1,0.2,0.3,0.4,0.6,0.3l7.6-2.1C9.9,7,10.2,6.4,10.1,5.8C10.1,5.9,10.1,5.9,10.1,5.8z"/><path id="Trazado_12_1_" class="st1" d="M9.9,11.2l-7.7-0.4c-0.3,0-0.5,0.2-0.5,0.4c0,0.1,0,0.2,0,0.2l0,0 c0.1,0.2,0.2,0.3,0.4,0.3l7.6,1.4c0.5,0.1,1-0.2,1.1-0.8s-0.2-1-0.8-1.1C10,11.2,9.9,11.2,9.9,11.2L9.9,11.2z"/></g></g></g></svg>