<svg id="Сгруппировать_62" data-name="Сгруппировать 62" xmlns="http://www.w3.org/2000/svg" width="121.214" height="85.393" viewBox="0 0 121.214 85.393">
  <g id="Сгруппировать_2" data-name="Сгруппировать 2" transform="translate(0 37.652)">
    <g id="Сгруппировать_1" data-name="Сгруппировать 1">
      <path id="Контур_1" data-name="Контур 1" d="M149.477,61.92a.929.929,0,0,0,.968.9.919.919,0,0,0,1-.9V46.751a.647.647,0,0,1,.539-.539H156a.653.653,0,0,1,.61.539V61.133c0,4.445-2.009,7.064-6.2,7.064-4.162,0-6.1-2.619-6.1-7.064V60.7a.955.955,0,0,1,.824-.861h3.48a.957.957,0,0,1,.861.861V61.92Zm9.617-1.326V46.751a.649.649,0,0,1,.539-.539h4.016a.653.653,0,0,1,.61.539V60.594c0,1.292.646,2.224,1.758,2.224s1.758-.931,1.758-2.224V46.751a.653.653,0,0,1,.61-.539H172.4a.647.647,0,0,1,.536.539V60.594c0,4.2-2.043,7.6-6.92,7.6S159.094,64.79,159.094,60.594Zm25.547,7.425a.825.825,0,0,1-.432-.217,1,1,0,0,1-.251-.322l-3.621-8.212V67.48a.64.64,0,0,1-.539.539h-4.089a.634.634,0,0,1-.536-.539V46.751a.634.634,0,0,1,.536-.539h3.945a.874.874,0,0,1,.683.539l3.514,8.032V46.751a.64.64,0,0,1,.539-.539h4.087a.579.579,0,0,1,.361.18.569.569,0,0,1,.178.358V67.48a.569.569,0,0,1-.178.358.579.579,0,0,1-.361.18Zm18.973-21.806a.655.655,0,0,1,.539.61v4.089a.649.649,0,0,1-.539.539H200.1V67.48a.655.655,0,0,1-.61.539h-4.016a.647.647,0,0,1-.539-.539V51.45h-3.514a.649.649,0,0,1-.539-.539V46.822a.655.655,0,0,1,.539-.61Zm15.428,7.244v7.137c0,4.2-2.043,7.6-6.92,7.6s-6.922-3.406-6.922-7.6V53.457c0-4.2,2.043-7.6,6.922-7.6S219.042,49.26,219.042,53.457Zm-5.164,7.137V53.386c0-1.256-.644-2.187-1.756-2.187s-1.758.931-1.758,2.187v7.208c0,1.292.646,2.224,1.758,2.224S213.877,61.886,213.877,60.594Zm6.71.466a.653.653,0,0,1,.612-.536h4.016a.644.644,0,0,1,.536.536,1.615,1.615,0,0,0,1.758,1.758,1.425,1.425,0,0,0,1.47-1.434c0-1.148-1.219-1.543-2.619-1.973-2.473-.79-5.523-1.938-5.523-6.959,0-1.4.361-6.6,6.527-6.6,6.133,0,6.528,5.235,6.528,6.528v.358a.653.653,0,0,1-.61.539h-4.016a.649.649,0,0,1-.539-.539v-.429c0-.646-.536-1.112-1.4-1.112a1.181,1.181,0,0,0-1.292,1.326c0,.895,1.148,1.4,2.438,1.792,2.438.717,5.737,1.865,5.737,6.959,0,.285,0,6.92-6.418,6.92-6.742,0-7.21-5.2-7.21-6.779Z" transform="translate(-128.659 -20.456)" fill="#00a4e4"/>
      <path id="Контур_2" data-name="Контур 2" d="M142.95,57.6a.693.693,0,0,1-.539-.539l-4.518-20.729a.647.647,0,0,1,.539-.539h4.231a.686.686,0,0,1,.61.539L145.71,49.6l2.441-13.27a.686.686,0,0,1,.61-.539h4.231a.649.649,0,0,1,.539.539l-4.518,20.729a.693.693,0,0,1-.539.539Zm24.9-14.562v7.137c0,4.2-2.046,7.6-6.923,7.6s-6.92-3.406-6.92-7.6V43.041c0-4.2,2.043-7.6,6.92-7.6S167.846,38.844,167.846,43.041Zm-5.164,7.137V42.97c0-1.256-.646-2.187-1.758-2.187s-1.756.931-1.756,2.187v7.208c0,1.29.644,2.224,1.756,2.224S162.681,51.468,162.681,50.178ZM170.4,57.6a.647.647,0,0,1-.536-.539V36.335a.647.647,0,0,1,.536-.539h4.018a.655.655,0,0,1,.61.539v16.03h5.667a.653.653,0,0,1,.536.61v4.089a.647.647,0,0,1-.536.539Zm14.455,0a.69.69,0,0,1-.539-.539L179.8,36.335a.647.647,0,0,1,.539-.539h4.231a.689.689,0,0,1,.61.539l2.438,13.27,2.438-13.27a.691.691,0,0,1,.61-.539h4.233a.649.649,0,0,1,.539.539l-4.521,20.729a.688.688,0,0,1-.536.539Zm20.085-21.267,4.521,20.729a.649.649,0,0,1-.539.539h-4.233a.691.691,0,0,1-.61-.539l-.466-2.726H199.74l-.466,2.726a.691.691,0,0,1-.61.539h-4.233a.649.649,0,0,1-.539-.539l4.521-20.729a.688.688,0,0,1,.536-.539h5.416A.684.684,0,0,1,204.938,36.335Zm-3.155,7.891h-.178l-.861,4.626h1.863Zm16.537,8.961c-.215,0-.466-.285-.539-.536L216.1,47.774v9.5a.653.653,0,0,1-.61.539h-4.016a.649.649,0,0,1-.539-.539V36.547a.649.649,0,0,1,.539-.539h4.913a.776.776,0,0,1,.646.539l2.509,7.747,2.512-7.747a.773.773,0,0,1,.644-.539h4.913a.647.647,0,0,1,.539.539V57.276a.647.647,0,0,1-.539.539h-4.016a.653.653,0,0,1-.61-.539v-9.5l-1.721,4.877c-.071.251-.322.536-.536.536ZM244,43.041v7.137c0,4.2-2.043,7.6-6.92,7.6s-6.923-3.406-6.923-7.6V43.041c0-4.2,2.043-7.6,6.923-7.6S244,38.844,244,43.041Zm-5.164,7.137V42.97c0-1.256-.644-2.187-1.756-2.187s-1.758.931-1.758,2.187v7.208c0,1.29.646,2.224,1.758,2.224S238.839,51.468,238.839,50.178Zm6.64.466a.65.65,0,0,1,.61-.536H250.1a.647.647,0,0,1,.539.536A1.613,1.613,0,0,0,252.4,52.4a1.425,1.425,0,0,0,1.47-1.434c0-1.148-1.219-1.543-2.616-1.973-2.475-.79-5.523-1.938-5.523-6.959,0-1.4.358-6.6,6.525-6.6,6.132,0,6.527,5.235,6.527,6.528v.358a.653.653,0,0,1-.61.539h-4.016a.649.649,0,0,1-.539-.539v-.432c0-.644-.536-1.109-1.4-1.109a1.181,1.181,0,0,0-1.292,1.326c0,.895,1.148,1.4,2.438,1.792,2.438.717,5.74,1.865,5.74,6.957,0,.288,0,6.923-6.42,6.923-6.742,0-7.208-5.2-7.208-6.779Z" transform="translate(-137.893 -35.438)" fill="#00a4e4"/>
    </g>
  </g>
  <g id="Сгруппировать_9" data-name="Сгруппировать 9" transform="translate(27.663)">
    <g id="Сгруппировать_4" data-name="Сгруппировать 4" transform="translate(43.135 5.618)">
      <path id="Контур_3" data-name="Контур 3" d="M182.921,36.049H172.28V28.224a3.008,3.008,0,0,1,3-3.019,2.956,2.956,0,0,1,2.9,2.95V28.2a.934.934,0,0,0,.363.724,1.428,1.428,0,0,1,0,2.238.929.929,0,0,0-.363.722v.534h2.9v-4.26a5.856,5.856,0,1,0-11.711.1v7.793H167.54a.613.613,0,0,0-.612.614V50.631a.611.611,0,0,0,.612.612h15.381a.611.611,0,0,0,.614-.612V36.664A.613.613,0,0,0,182.921,36.049Zm-6.145,11.69a1.578,1.578,0,0,1-3.089,0,2.149,2.149,0,0,1,.051-1.3l.756-2.18a2.236,2.236,0,0,0,0-1.465l-.753-2.2a2.152,2.152,0,0,1,.029-1.541,1.564,1.564,0,0,1,2.919,0,2.165,2.165,0,0,1,.029,1.541l-.753,2.2a2.236,2.236,0,0,0,0,1.465l.758,2.18A2.148,2.148,0,0,1,176.777,47.739Z" transform="translate(-166.928 -22.301)" fill="#a21977"/>
      <g id="Сгруппировать_3" data-name="Сгруппировать 3" transform="translate(14.826 4.951)">
        <path id="Контур_4" data-name="Контур 4" d="M173.047,29.43a.355.355,0,0,0,.1.117.343.343,0,0,0,.468-.054l3.436-4.062a.669.669,0,1,0-1.07-.8l-2.916,4.45a.349.349,0,0,0-.024.332Z" transform="translate(-173.008 -24.331)" fill="#a21977"/>
        <path id="Контур_5" data-name="Контур 5" d="M178.879,26.948a.674.674,0,1,0-.614-1.2l-4.65,2.76a.343.343,0,0,0,.312.61Z" transform="translate(-172.379 -22.427)" fill="#a21977"/>
        <path id="Контур_6" data-name="Контур 6" d="M179.276,27.305l-5.3.429a.342.342,0,0,0-.315.349.329.329,0,0,0,.037.151l.007.012a.342.342,0,0,0,.285.173l5.313.222a.669.669,0,1,0-.024-1.336Z" transform="translate(-172.074 -20.056)" fill="#a21977"/>
      </g>
    </g>
    <g id="Сгруппировать_6" data-name="Сгруппировать 6" transform="translate(0 7.796)">
      <path id="Контур_7" data-name="Контур 7" d="M165.85,36.116v6.818a6.922,6.922,0,1,1-13.843.1V36.116h10.322V29.061a3.448,3.448,0,0,0-3.3-3.472,3.4,3.4,0,0,0-3.506,3.4v.617a.31.31,0,0,1-.31.31h-.4a.565.565,0,0,0-.571.495.548.548,0,0,0,.546.6h.424a.312.312,0,0,1,.31.312v1.151h-2.392V29.086a5.8,5.8,0,1,1,11.59-.1v7.127Zm-5.033,4.155A1.888,1.888,0,1,0,158,41.916l-.536,3.063a.485.485,0,0,0,.478.571h1.968a.485.485,0,0,0,.478-.571l-.536-3.063A1.883,1.883,0,0,0,160.817,40.27Z" transform="translate(-145.255 -23.194)" fill="#a21977"/>
      <g id="Сгруппировать_5" data-name="Сгруппировать 5" transform="translate(0 4.765)">
        <path id="Контур_8" data-name="Контур 8" d="M156.47,29.516l0-.015a.345.345,0,0,0-.085-.322L152.7,25.351a.67.67,0,1,0-.9.985l4.135,3.348a.341.341,0,0,0,.468-.034A.319.319,0,0,0,156.47,29.516ZM155.127,32.4l-5.291.571a.669.669,0,1,0,.224,1.317l5.182-1.212a.343.343,0,0,0,.246-.222l0-.015a.365.365,0,0,0,.01-.154A.344.344,0,0,0,155.127,32.4Zm.354-1.69L150.4,28.865a.675.675,0,1,0-.38,1.292l5.272,1.207a.342.342,0,0,0,.193-.656Z" transform="translate(-149.238 -25.148)" fill="#a21977"/>
      </g>
    </g>
    <g id="Сгруппировать_8" data-name="Сгруппировать 8" transform="translate(23.996)">
      <path id="Контур_9" data-name="Контур 9" d="M172.314,32.753h-8.049V25.192a2.2,2.2,0,0,1,2.182-2.2,2.15,2.15,0,0,1,2.112,2.148v.983a.264.264,0,0,0,.207.261.948.948,0,0,1,0,1.848.266.266,0,0,0-.207.261V29.62h2.989V25.135A5.144,5.144,0,0,0,166.289,20a5.2,5.2,0,0,0-5.013,5.233v7.522h-1.658a.649.649,0,0,0-.539.539V54.02a.653.653,0,0,0,.612.536h12.694a.647.647,0,0,0,.539-.536V33.292A.655.655,0,0,0,172.314,32.753Zm-1.041,13.089a.468.468,0,0,1-.468.468H169.11a.468.468,0,0,1-.468-.468V44.147a.468.468,0,0,1,.468-.468h1.695a.468.468,0,0,1,.468.468Zm0-3.684a.468.468,0,0,1-.468.468H169.11a.468.468,0,0,1-.468-.468V40.463a.468.468,0,0,1,.468-.468h1.695a.468.468,0,0,1,.468.468Zm0-3.684a.468.468,0,0,1-.468.468H169.11a.468.468,0,0,1-.468-.468V36.779a.468.468,0,0,1,.468-.468h1.695a.468.468,0,0,1,.468.468Z" transform="translate(-159.079 -19.996)" fill="#a21977"/>
      <g id="Сгруппировать_7" data-name="Сгруппировать 7" transform="translate(13.142 4.622)">
        <path id="Контур_10" data-name="Контур 10" d="M169,23.06a.669.669,0,1,0-.951-.939l-3.5,4.006a.339.339,0,0,0-.068.324l0,.015a.344.344,0,0,0,.083.132.34.34,0,0,0,.468.01Z" transform="translate(-164.469 -21.892)" fill="#a21977"/>
        <path id="Контур_11" data-name="Контур 11" d="M170.915,23.808a.676.676,0,0,0-.9-.4L165.029,25.5a.348.348,0,0,0-.19.432.344.344,0,0,0,.417.217l5.206-1.468A.675.675,0,0,0,170.915,23.808Z" transform="translate(-163.963 -19.785)" fill="#a21977"/>
        <path id="Контур_12" data-name="Контур 12" d="M170.611,25.23l-5.311-.307a.343.343,0,0,0-.361.3.326.326,0,0,0,.017.154l0,.017a.345.345,0,0,0,.258.21l5.233.953a.669.669,0,1,0,.159-1.326Z" transform="translate(-163.796 -17.534)" fill="#a21977"/>
      </g>
    </g>
  </g>
</svg>
